<svg xmlns="http://www.w3.org/2000/svg" version="1.1" xmlns:xlink="http://www.w3.org/1999/xlink" xmlns:svgjs="http://svgjs.dev/svgjs" viewBox="0 0 1920 1080"><rect width="1920" height="1080" fill="#f67474"></rect><g transform="matrix(7.04171909509728e-17,1.15,-1.15,7.04171909509728e-17,1562.1973838806152,-542.3769914627073)"><path d="M0,-1080C-6.267384884547329,-977.3132371189856,-37.80115912392943,-685.0552176107103,-37.60430930728397,-463.87942271391404C-37.40745949063851,-242.7036278171178,-7.844099450636898,26.99415513457498,1.1810988998727794,247.05476938077754C10.206297250382457,467.11538362698013,16.0763984011378,643.9227497159997,16.5468807957741,856.4842627633013C17.0173631904104,1069.0457758106031,6.761806733652918,1305.1712247918047,4.003993267690568,1522.4238476645878C1.2461798017282177,1739.676470537371,0.6673322112817613,2053.737307944098,0,2160L 1920 2160 L 1920 -1080 Z" fill="url(&quot;#SvgjsLinearGradient1638&quot;)"></path><path d="M192,-1080C188.42052086536546,-997.2014328481589,173.67798870753197,-763.6258497311719,170.52312519219282,-583.2085970889536C167.36826167685368,-402.79134444673537,165.60711049600752,-180.2441568179575,173.0708189079652,2.503515853309729C180.53452731992286,185.25118852457695,210.69730442667452,332.64338176822685,215.30537566393886,513.2774389386498C219.9134469012032,693.9114961090727,203.56619735846385,901.9054532107607,200.7192463315512,1086.3078588758472C197.87229530463856,1270.7102645409336,199.67687722438808,1440.7431827418097,198.22366950246288,1619.6918729291685C196.7704617805377,1798.6405631165273,193.03727825041048,2069.948645488195,192,2160L 1920 2160 L 1920 -1080 Z" fill="url(&quot;#SvgjsLinearGradient1639&quot;)"></path><path d="M384,-1080C378.07449661985356,-1009.7302970299031,342.38878771393894,-794.4158305343669,348.4469797191214,-658.3817821794185C354.5051717243038,-522.34773382447,410.2947776481267,-400.56194642028845,420.3491520310945,-263.7957098703093C430.4035264140623,-127.02947332033008,423.5140491214768,34.39241728127219,408.77322601692816,162.2156371204567C394.03240291237955,290.03885695964124,335.468913139455,372.2388740450848,331.9042134038027,503.14360916479785C328.3395136681504,634.0483442845109,377.6399345019303,808.6727908530778,387.3850276030143,947.6440478387351C397.13012070409826,1086.6153048243923,386.6593027235967,1196.2092638419085,390.3747720103065,1336.9711510787417C394.09024129701635,1477.733038315575,410.7403053249909,1655.0438964395253,409.6778433232732,1792.2153712597349C408.61538132155545,1929.3868460799445,388.27964055387883,2098.7025618766224,384,2160L 1920 2160 L 1920 -1080 Z" fill="url(&quot;#SvgjsLinearGradient1640&quot;)"></path><path d="M576,-1080C574.6559489612179,-1001.3735761934435,561.5796125261757,-766.2172932638086,567.9356937673074,-608.2414571606606C574.2917750084391,-450.2656210575126,608.6740662070263,-280.1255719302307,614.1364874467902,-132.14498338111193C619.5989086865541,15.83560516800685,614.453669618126,127.02817241626039,600.7102212058905,279.6420741340521C586.9667727936551,432.2559758518438,537.9814147809826,621.861100296345,531.6757969733777,783.5384269256383C525.3701791657728,945.2157535549317,560.7517938604313,1106.0348977245274,562.8765143602609,1249.706033909812C565.0012348600904,1393.3771700950967,542.236872365732,1493.8495830223155,544.4241199723551,1645.565244037347C546.6113675789783,1797.2809050523783,570.7373533287258,2074.2608740062246,576,2160L 1920 2160 L 1920 -1080 Z" fill="url(&quot;#SvgjsLinearGradient1641&quot;)"></path><path d="M768,-1080C770.779529289611,-1008.2791563742139,787.7575084327993,-787.478579670418,784.6771757376661,-649.6749382452833C781.5968430425328,-511.8712968201487,751.8339631224803,-387.72584477185876,749.5180038292004,-253.17815144919197C747.2020445359205,-118.63045812652521,772.1737236992705,32.62696632838255,770.7814199779865,157.61122169071726C769.3891162567026,282.595477053052,743.293423224901,361.48412954645096,741.1641815014967,496.72738072481627C739.0349397780925,631.9706319031816,749.4426181995605,828.8095231836496,758.0059696375614,969.0707287609091C766.5693210755624,1109.3319343381686,790.2670769488665,1209.2215454999387,792.5442901295028,1338.2946141883735C794.8215033101391,1467.3676828768084,775.7599637429632,1606.5582432562471,771.6692487213794,1743.5091408915182C767.5785336997956,1880.4600385267893,768.6115414535632,2090.5848568152533,768,2160L 1920 2160 L 1920 -1080 Z" fill="url(&quot;#SvgjsLinearGradient1642&quot;)"></path><path d="M960,-1080C961.2435601234371,-978.5924240602629,973.3394072289608,-679.0844551363706,967.4613607406226,-471.55454436157754C961.5833142522844,-264.0246335867845,925.4569856352442,-62.25222909954854,924.7317210699705,165.17946464875814C924.0064565046968,392.61115839706486,958.0840455290235,660.2215585642737,963.1097733489804,893.0356181282627C968.1355011689374,1125.8496776922518,955.4043835478758,1350.903091720736,954.8860879897125,1562.0638220326923C954.3677924315491,1773.2245523446486,959.1476813316187,2060.343970338782,960,2160L 1920 2160 L 1920 -1080 Z" fill="url(&quot;#SvgjsLinearGradient1643&quot;)"></path><path d="M1152,-1080C1157.8258153103395,-1012.7965475250023,1184.1278234740626,-804.2832976861936,1186.9548918620376,-676.7792851500138C1189.7819602500126,-549.2752726138341,1181.7927247417629,-445.1302974897403,1168.9624103278495,-314.9759247829217C1156.1320959139362,-184.82155207610307,1116.4897398786281,-37.4995352614218,1109.9730053785574,104.14695109089799C1103.4562708784867,245.79343744321778,1120.115318161602,386.9462330377152,1129.862003327425,534.902993330997C1139.608688493248,682.8597536242787,1159.36439058342,861.5681978163703,1168.4531163734957,991.8875128505887C1177.5418421635716,1122.2068278848071,1188.3395624896234,1198.3212771697144,1184.3943580678806,1316.818883536307C1180.4491536461378,1435.3164899028998,1150.1809495210193,1562.3429649728625,1144.7818898430392,1702.8731510501448C1139.382830165059,1843.403337127427,1150.7969816405066,2083.812191841691,1152,2160L 1920 2160 L 1920 -1080 Z" fill="url(&quot;#SvgjsLinearGradient1644&quot;)"></path><path d="M1344,-1080C1337.3406008009997,-1015.2170499399195,1296.287820614699,-820.5636385229863,1304.043604805998,-691.3022996395175C1311.799388997297,-562.0409607560488,1389.8551656222307,-444.9487164161485,1390.5347051477936,-304.4319666991874C1391.2142446733565,-163.91521698222627,1315.0924981527196,17.266867367684767,1308.1208419593754,151.79819866224918C1301.1491857660312,286.3295299568136,1345.0893934239634,363.88583794734933,1348.704767987729,502.756021068199C1352.3201425514944,641.6262041890486,1338.6365039611342,851.5332366558573,1329.813089341969,985.0192973873473C1320.989674722804,1118.5053581188372,1290.0725494293233,1169.049670605435,1295.7642802727382,1303.672385457139C1301.4560111161531,1438.2951003088428,1355.924187781248,1650.034317407093,1363.9634744024584,1792.75558649757C1372.0027610236687,1935.4768555880469,1347.327245733743,2098.792597749595,1344,2160L 1920 2160 L 1920 -1080 Z" fill="url(&quot;#SvgjsLinearGradient1645&quot;)"></path><path d="M1536,-1080C1534.7532046689948,-951.6531189060314,1532.9005866551547,-578.2320317570459,1528.519228013969,-309.91871343618834C1524.1378693727834,-41.60539511533085,1514.7339924980029,258.8470618120602,1509.711848152886,529.8799099251451C1504.689703807769,800.9127580382299,1494.0050033020825,1044.5916935631785,1498.3863619432682,1316.278375242321C1502.7677205844539,1587.9650569214637,1529.731060323878,2019.3797292070535,1536,2160L 1920 2160 L 1920 -1080 Z" fill="url(&quot;#SvgjsLinearGradient1646&quot;)"></path><path d="M1728,-1080C1727.151742506693,-1003.1251821234588,1727.9933261595327,-768.3231298821916,1722.9104550401578,-618.7510927407525C1717.827583920783,-469.1790555993134,1693.5439238492918,-334.43946640707475,1697.502773283751,-182.56777715136548C1701.46162271821,-30.696087895656234,1735.370081721629,127.6254747866713,1746.663551646913,292.47904279350286C1757.957021572197,457.3326108003344,1768.0817612747255,655.2916846686054,1765.2635928354553,806.5536308896238C1762.445424396185,957.8155771106423,1743.307972536716,1058.940328408458,1729.7545410112912,1200.0507201196135C1716.2011094858663,1341.161111830769,1684.2354271847878,1493.2244345098252,1683.943003682906,1653.2159811565564C1683.6505801810242,1813.2075278032876,1720.6571672804844,2075.535996859426,1728,2160L 1920 2160 L 1920 -1080 Z" fill="url(&quot;#SvgjsLinearGradient1647&quot;)"></path></g><defs><linearGradient x1="0.1" y1="0" x2="0" y2="1" id="SvgjsLinearGradient1638"><stop stop-color="#f67474" offset="0"></stop><stop stop-color="#f6748a" offset="0"></stop></linearGradient><linearGradient x1="0.1" y1="0" x2="0" y2="1" id="SvgjsLinearGradient1639"><stop stop-color="#f45757" offset="0"></stop><stop stop-color="#f45771" offset="0.1"></stop></linearGradient><linearGradient x1="0.1" y1="0" x2="0" y2="1" id="SvgjsLinearGradient1640"><stop stop-color="#f23a3a" offset="0"></stop><stop stop-color="#f23a59" offset="0.2"></stop></linearGradient><linearGradient x1="0.1" y1="0" x2="0" y2="1" id="SvgjsLinearGradient1641"><stop stop-color="#f01d1d" offset="0"></stop><stop stop-color="#f01d40" offset="0.3"></stop></linearGradient><linearGradient x1="0.1" y1="0" x2="0" y2="1" id="SvgjsLinearGradient1642"><stop stop-color="#e00e0e" offset="0"></stop><stop stop-color="#e00e31" offset="0.4"></stop></linearGradient><linearGradient x1="0.1" y1="0" x2="0" y2="1" id="SvgjsLinearGradient1643"><stop stop-color="#c30d0d" offset="0"></stop><stop stop-color="#c30d2b" offset="0.5"></stop></linearGradient><linearGradient x1="0.1" y1="0" x2="0" y2="1" id="SvgjsLinearGradient1644"><stop stop-color="#a50b0b" offset="0"></stop><stop stop-color="#a50b25" offset="0.6"></stop></linearGradient><linearGradient x1="0.1" y1="0" x2="0" y2="1" id="SvgjsLinearGradient1645"><stop stop-color="#880909" offset="0"></stop><stop stop-color="#88091e" offset="0.7"></stop></linearGradient><linearGradient x1="0.1" y1="0" x2="0" y2="1" id="SvgjsLinearGradient1646"><stop stop-color="#6b0707" offset="0"></stop><stop stop-color="#6b0718" offset="0.8"></stop></linearGradient><linearGradient x1="0.1" y1="0" x2="0" y2="1" id="SvgjsLinearGradient1647"><stop stop-color="#4e0505" offset="0"></stop><stop stop-color="#4e0511" offset="0.9"></stop></linearGradient></defs></svg>
